<svg width="50" height="42" viewBox="0 0 50 42" fill="none" xmlns="http://www.w3.org/2000/svg">
<path d="M50 6.05512C46.8548 6.20008 46.9234 6.18826 46.5679 6.21801L48.4306 0.898417C48.4306 0.898417 42.6163 3.03732 41.1423 3.41993C37.2711 -0.0594536 31.517 -0.213186 27.4033 2.3152C24.0345 4.38619 22.2263 7.94264 22.8294 12.0995C16.2731 11.1897 10.7491 8.08187 6.38771 2.84277L5.00832 1.18604L3.97758 3.0789C2.67487 5.47071 2.24228 8.20547 2.75917 10.7792C2.97127 11.8352 3.33176 12.8422 3.8311 13.7852L2.64778 13.3267L2.5074 15.3039C2.36511 17.3123 3.03383 19.6568 4.29649 21.5748C4.65202 22.115 5.10979 22.7082 5.69 23.2934L5.07851 23.1995L5.82466 25.4651C6.80542 28.4417 8.84247 30.7446 11.4861 32.0248C8.8459 33.1452 6.7131 33.8601 3.2074 35.0133L0 36.0676L2.96249 37.6874C4.09203 38.305 8.08334 40.3676 12.027 40.9863C20.7931 42.3611 30.6629 41.2415 37.3074 35.2574C42.9039 30.217 44.7403 23.0473 44.3588 15.5861C44.3012 14.4566 44.6106 13.3786 45.2301 12.5512C46.471 10.8944 49.9924 6.06619 50 6.05512ZM42.8875 10.7964C41.8587 12.1701 41.3433 13.9245 41.4356 15.7357C41.8205 23.2617 39.7728 29.0982 35.3489 33.0823C30.1811 37.7366 21.8456 39.5634 12.4805 38.0944C10.7845 37.8285 9.03168 37.233 7.58095 36.6383C10.5202 35.627 12.7899 34.7256 16.4555 32.9907L21.5725 30.5687L15.9229 30.2071C13.2168 30.0339 10.9634 28.7224 9.57832 26.5931C10.3138 26.5503 11.0229 26.4313 11.729 26.2345L17.1173 24.7338L11.684 23.4032C9.04388 22.7566 7.53899 21.177 6.74133 19.9654C6.21757 19.1693 5.8754 18.3537 5.67017 17.6018C6.2149 17.7479 6.85005 17.8521 7.8743 17.9535L12.9032 18.451L8.91876 15.3428C6.04782 13.1035 4.89731 9.73936 5.74074 6.50526C14.7007 15.7986 25.2209 15.1002 26.2798 15.3458C26.0467 13.0818 26.0406 13.0765 25.9796 12.8609C24.6235 8.067 27.5955 5.63284 28.936 4.80886C31.736 3.08805 36.1805 2.82865 39.2589 5.66374C39.9239 6.27561 40.823 6.51632 41.6645 6.30728C42.4198 6.11959 43.0397 5.92085 43.6466 5.70455L42.3832 9.31249L43.996 9.31364C43.6916 9.72181 43.3266 10.2105 42.8875 10.7964Z" fill="#2E2F22"/>
</svg>
